<?xml version="1.0" encoding="UTF-8" standalone="no"?>
<!DOCTYPE svg PUBLIC "-//W3C//DTD SVG 1.1//EN" "http://www.w3.org/Graphics/SVG/1.1/DTD/svg11.dtd">
<svg width="100%" height="100%" viewBox="0 0 128 128" version="1.1" xmlns="http://www.w3.org/2000/svg" xmlns:xlink="http://www.w3.org/1999/xlink" xml:space="preserve" xmlns:serif="http://www.serif.com/" style="fill-rule:evenodd;clip-rule:evenodd;stroke-linejoin:round;stroke-miterlimit:2;">
    <g transform="matrix(1.02861,0,0,1.01775,0,0.491363)">
        <path d="M62.22,-0.483C96.56,-0.483 124.439,27.694 124.439,62.401C124.439,97.107 96.56,125.284 62.22,125.284C27.88,125.284 0,97.107 0,62.401C0,27.694 27.88,-0.483 62.22,-0.483ZM62.22,14.256C88.511,14.256 109.857,35.829 109.857,62.401C109.857,88.973 88.511,110.546 62.22,110.546C35.928,110.546 14.583,88.973 14.583,62.401C14.583,35.829 35.928,14.256 62.22,14.256Z" style="fill:rgb(217,217,217);"/>
    </g>
</svg>
